<svg xmlns="http://www.w3.org/2000/svg" viewBox="0 0 512 512">
  <defs>
    <linearGradient id="frame1" x1="0%" y1="0%" x2="100%" y2="0%">
      <stop offset="0%" style="stop-color:#e74c3c"/>
      <stop offset="100%" style="stop-color:#c0392b"/>
    </linearGradient>
    <linearGradient id="frame2" x1="0%" y1="0%" x2="100%" y2="0%">
      <stop offset="0%" style="stop-color:#f39c12"/>
      <stop offset="100%" style="stop-color:#d68910"/>
    </linearGradient>
    <linearGradient id="frame3" x1="0%" y1="0%" x2="100%" y2="0%">
      <stop offset="0%" style="stop-color:#3498db"/>
      <stop offset="100%" style="stop-color:#2980b9"/>
    </linearGradient>
  </defs>

  <!-- Background -->
  <rect width="512" height="512" fill="#1a1a1a"/>

  <!-- Film strip -->
  <rect x="102" y="0" width="308" height="512" fill="#2a2a2a"/>

  <!-- Perforations left -->
  <rect x="122" y="31" width="31" height="41" rx="8" fill="#1a1a1a"/>
  <rect x="122" y="92" width="31" height="41" rx="8" fill="#1a1a1a"/>
  <rect x="122" y="153" width="31" height="41" rx="8" fill="#1a1a1a"/>
  <rect x="122" y="214" width="31" height="41" rx="8" fill="#1a1a1a"/>
  <rect x="122" y="275" width="31" height="41" rx="8" fill="#1a1a1a"/>
  <rect x="122" y="336" width="31" height="41" rx="8" fill="#1a1a1a"/>
  <rect x="122" y="397" width="31" height="41" rx="8" fill="#1a1a1a"/>
  <rect x="122" y="458" width="31" height="41" rx="8" fill="#1a1a1a"/>

  <!-- Perforations right -->
  <rect x="359" y="31" width="31" height="41" rx="8" fill="#1a1a1a"/>
  <rect x="359" y="92" width="31" height="41" rx="8" fill="#1a1a1a"/>
  <rect x="359" y="153" width="31" height="41" rx="8" fill="#1a1a1a"/>
  <rect x="359" y="214" width="31" height="41" rx="8" fill="#1a1a1a"/>
  <rect x="359" y="275" width="31" height="41" rx="8" fill="#1a1a1a"/>
  <rect x="359" y="336" width="31" height="41" rx="8" fill="#1a1a1a"/>
  <rect x="359" y="397" width="31" height="41" rx="8" fill="#1a1a1a"/>
  <rect x="359" y="458" width="31" height="41" rx="8" fill="#1a1a1a"/>

  <!-- Film frames -->
  <rect x="174" y="61" width="164" height="113" rx="10" fill="url(#frame1)"/>
  <rect x="174" y="200" width="164" height="113" rx="10" fill="url(#frame2)"/>
  <rect x="174" y="338" width="164" height="113" rx="10" fill="url(#frame3)"/>
</svg>
